<?xml version="1.0" encoding="utf-8"?>
<!-- Generator: Adobe Illustrator 25.0.0, SVG Export Plug-In . SVG Version: 6.00 Build 0)  -->
<svg version="1.1" id="Capa_1" xmlns="http://www.w3.org/2000/svg" xmlns:xlink="http://www.w3.org/1999/xlink" x="0px" y="0px"
	 viewBox="0 0 238.6 141" style="enable-background:new 0 0 238.6 141;" xml:space="preserve">
<style type="text/css">
	.st0{fill:url(#XMLID_2_);}
	.st1{fill:url(#SVGID_1_);}
	.st2{fill:url(#SVGID_2_);}
	.st3{fill:url(#SVGID_3_);}
	.st4{fill:#1F1F2C;}
	.st5{font-family:'OpenSans-BoldItalic';}
	.st6{font-size:15.7259px;}
</style>
<g>
	<g>
		<g>
			<g>
				
					<linearGradient id="XMLID_2_" gradientUnits="userSpaceOnUse" x1="68.3329" y1="105.7653" x2="37.1781" y2="69.3141" gradientTransform="matrix(1 0 0 -1 0 142)">
					<stop  offset="0" style="stop-color:#00F7E2"/>
					<stop  offset="1" style="stop-color:#139BEF"/>
				</linearGradient>
				<path id="XMLID_00000029757436634865732480000011791267302368165766_" class="st0" d="M83.2,34.6v0.9c0,0.7-0.5,1.3-1.2,1.4
					l-0.2,0.8c-0.1,0.4-0.5,0.7-0.9,0.7h-2.1c-0.4,0-0.8-0.3-0.9-0.7l-0.2-0.8c-0.7-0.1-1.2-0.7-1.2-1.4v-0.9c0-0.5,0.4-0.8,0.8-0.8
					h5.1C82.8,33.8,83.2,34.2,83.2,34.6z M87.1,22.9c0,2-0.8,3.8-2.1,5.1c-1,1-1.6,2.3-1.8,3.7c-0.1,0.6-0.6,1-1.2,1h-4.6
					c-0.6,0-1.1-0.4-1.2-1c-0.2-1.4-0.8-2.7-1.8-3.7c-1.2-1.3-2-3.1-2.1-5c0-4.1,3.2-7.4,7.3-7.4C83.8,15.5,87.1,18.8,87.1,22.9z
					 M80.6,18.4c0-0.5-0.4-0.8-0.8-0.8c-2.9,0-5.3,2.4-5.3,5.3c0,0.5,0.4,0.8,0.8,0.8s0.8-0.4,0.8-0.8c0-2,1.6-3.6,3.7-3.6
					C80.2,19.2,80.6,18.9,80.6,18.4z M79.8,13.1c0.5,0,0.8-0.4,0.8-0.8V9.3c0-0.5-0.5-0.9-1-0.8c-0.4,0.1-0.7,0.4-0.7,0.8v2.9
					C78.9,12.7,79.3,13.1,79.8,13.1z M69.2,23.7c0.3,0,0.7-0.3,0.8-0.6c0.2-0.5-0.3-1.1-0.8-1.1h-2.9c-0.5,0-0.8,0.4-0.8,0.8
					c0,0.5,0.4,0.8,0.8,0.8H69.2z M93.3,22h-2.9c-0.5,0-0.8,0.4-0.8,0.8c0,0.5,0.4,0.8,0.8,0.8h2.9c0.5,0,0.8-0.4,0.8-0.8
					C94.1,22.4,93.8,22,93.3,22z M71.7,29.8l-2.1,2.1c-0.3,0.3-0.3,0.8,0,1.2c0.2,0.2,0.4,0.2,0.6,0.2s0.4-0.1,0.6-0.2l2.1-2.1
					c0.3-0.3,0.3-0.9,0-1.2C72.5,29.5,72,29.5,71.7,29.8z M87.3,16.2c0.2,0,0.4-0.1,0.6-0.2l2.1-2.1c0.3-0.3,0.3-0.9,0-1.2
					c-0.3-0.3-0.8-0.3-1.2,0l-2.1,2.1c-0.3,0.3-0.3,0.9,0,1.2C86.8,16.1,87.1,16.2,87.3,16.2z M71.7,15.9c0.2,0.2,0.4,0.2,0.6,0.2
					s0.4-0.1,0.6-0.2c0.3-0.3,0.3-0.9,0-1.2l-2.1-2.1c-0.3-0.3-0.8-0.3-1.2,0c-0.3,0.3-0.3,0.9,0,1.2L71.7,15.9z M87.8,29.8
					c-0.3-0.3-0.8-0.3-1.2,0c-0.3,0.3-0.3,0.9,0,1.2l2.1,2.1c0.2,0.2,0.4,0.2,0.6,0.2s0.4-0.1,0.6-0.2c0.3-0.3,0.3-0.8,0-1.2
					L87.8,29.8z"/>
			</g>
		</g>
		<g>
			
				<linearGradient id="SVGID_1_" gradientUnits="userSpaceOnUse" x1="58.2943" y1="114.3454" x2="27.1395" y2="77.8942" gradientTransform="matrix(1 0 0 -1 0 142)">
				<stop  offset="0" style="stop-color:#00F7E2"/>
				<stop  offset="1" style="stop-color:#139BEF"/>
			</linearGradient>
			<path class="st1" d="M17.3,85.9c-0.7-0.9-1.8-1.4-2.8-1.4c-2.1-3.6-2.8-6.8-2.2-9.6c0.4-1.7,1.2-3.2,2.4-4.5c1-1,1.9-1.6,1.9-1.6
				l0,0l-2.1-3.8c-0.2,0.1-5.1,2.9-6.4,8.9c-0.5,2.2-0.4,4.6,0.2,7.1c0.5,1.9,1.4,3.9,2.5,5.9c-0.5,1.2-0.3,2.6,0.6,3.7
				c1.3,1.6,3.7,1.9,5.3,0.6C18.4,89.9,18.6,87.5,17.3,85.9z"/>
			<g>
				
					<linearGradient id="SVGID_2_" gradientUnits="userSpaceOnUse" x1="67.3555" y1="106.6007" x2="36.2007" y2="70.1496" gradientTransform="matrix(1 0 0 -1 0 142)">
					<stop  offset="0" style="stop-color:#00F7E2"/>
					<stop  offset="1" style="stop-color:#139BEF"/>
				</linearGradient>
				<path class="st2" d="M36.6,40.7c-2.4-0.1-4.4,1.3-5.3,3.4c-0.8-0.4-1.7-0.6-2.6-0.6c-2.8,0-5.1,2-5.6,4.7
					c-0.1,0.5-0.3,1.5-0.2,2.1c0,0-0.4-0.9-0.3-2.2c-0.1,0-0.1,0-0.2,0c-1.4,0-2.5,1.1-2.5,2.5c0,0.3,0.1,0.7,0.2,1
					c-2.2,0.8-3.1,3.4-2.2,5.5c-1.7,0.7-2.9,2.4-2.9,4.3c0,0.5,0.1,0.9,0.2,1.3c2.4-1.1,3.5-0.9,3.5-0.9c-1.4,0.4-2.4,1.2-3.1,1.8
					c-0.1,0.1-0.3,0.3-0.4,0.4c-0.1,0.2-0.2,0.3-0.4,0.5c-0.1,0.2-0.2,0.5-0.3,0.7c-0.2,0.5-0.4,0.9-0.6,1.4c-0.2,0.5-0.3,1-0.4,1.5
					c0,0,0,0,0,0.1c0,0.2,0,0.4,0,0.6c0,2.3,1.1,4.4,2.8,5.7c-0.5,0.7-0.8,1.6-0.8,2.5c0,1.8,1.2,3.4,2.8,4c0,0,0,0,0,0
					c0.7,0.3,1.7,0.6,3,0.7c0,0-1.3,0.5-3,0.7c0.2,3.5,3,6.2,6.5,6.2c0.3,0,0.6,0,0.9-0.1c-0.5-2.2-0.1-4.5-0.1-4.5
					c0.1,1.9,0.7,3.3,1.2,4.2c0,0,0,0,0,0c1,1.6,2.5,2.9,4.3,3.5c-0.8,3.8-1.2,9.1,1,13.9h-3.7c-2.1,0-3.8,1.7-3.8,3.8h14.7
					l-2.4-3.1c-3.4-4.4-3-10.3-2.1-14.2c4-0.5,7.1-3.9,7.1-8.1V46.4C42,43.4,39.7,40.8,36.6,40.7z M30.8,48.3L30.8,48.3
					c0.2,0.8,0.5,1.6,1,2.2c0.5,0.6,1.1,1.1,1.8,1.4c0.7,0.3,1.4,0.5,2.2,0.4c0.8,0,1.5-0.3,2.3-0.7c-0.5,0.7-1.3,1.2-2.2,1.4
					c-0.5,0.1-0.9,0.1-1.4,0.1c-0.5,0-0.9-0.2-1.3-0.4c-0.8-0.4-1.6-1.1-2-1.9C30.7,50.1,30.6,49.1,30.8,48.3z M33.4,76.2
					c-0.5,0.1-0.9,0.1-1.4,0.1c-0.5,0-0.9-0.2-1.3-0.4c-0.3-0.1-0.5-0.3-0.8-0.5c-0.1-0.1-0.3-0.2-0.4-0.3c-0.4,0.3-0.8,0.5-1.3,0.7
					c-0.2,0.1-0.5,0.2-0.8,0.2c-0.9,0.2-1.8,0.1-2.6-0.3c-0.4-0.2-0.8-0.4-1.1-0.7c-0.3-0.3-0.6-0.6-0.9-1c-0.5-0.7-0.8-1.6-0.8-2.4
					c0.1,0.8,0.5,1.6,1,2.3c0.3,0.3,0.6,0.6,0.9,0.8c0.3,0.2,0.7,0.4,1.1,0.5c0.8,0.2,1.6,0.2,2.3,0.1c0.3-0.1,0.6-0.2,0.9-0.4
					c0.2-0.1,0.5-0.3,0.7-0.5c-0.1-0.1-0.1-0.2-0.2-0.3c-0.4-0.8-0.5-1.6-0.4-2.4h0.1c0.2,0.8,0.5,1.4,1,2c0.2,0.2,0.4,0.4,0.6,0.6
					c0.4,0.3,0.8,0.6,1.2,0.8c0.7,0.3,1.4,0.5,2.2,0.4c0.8,0,1.5-0.3,2.3-0.7C35.1,75.5,34.3,76,33.4,76.2z M36.5,67.9
					c-1.3,0.3-2.7,0.1-3.9-0.5c-0.5-0.2-1-0.6-1.5-0.9c-0.1-0.1-0.2-0.2-0.3-0.3c-0.6,0.4-1.2,0.6-1.9,0.8c-0.1,0-0.2,0.1-0.4,0.1
					c-0.5,0.1-0.9,0-1.4-0.1c-0.4-0.1-0.9-0.2-1.3-0.4c-0.8-0.4-1.5-1-1.9-1.8c-0.4-0.8-0.6-1.6-0.6-2.5c0,0.8,0.3,1.7,0.8,2.3
					c0.5,0.7,1.1,1.2,1.9,1.5c0.4,0.1,0.8,0.2,1.1,0.3c0.4,0,0.8,0,1.2-0.1c0.1,0,0.3-0.1,0.5-0.1c0.5-0.2,0.9-0.4,1.2-0.7
					c-0.2-0.2-0.3-0.5-0.5-0.7c-0.3-0.6-0.5-1.2-0.7-1.8c0-0.2-0.1-0.5-0.1-0.7c0-0.4,0-0.8,0-1.2c0.1,0.4,0.2,0.8,0.3,1.2
					c0.1,0.2,0.1,0.4,0.2,0.6c0.2,0.5,0.5,1.1,0.9,1.5c0.2,0.3,0.5,0.6,0.8,0.9c0.1,0.1,0.3,0.3,0.4,0.4c0.4,0.4,0.9,0.7,1.5,0.9
					c0.5,0.2,1.1,0.4,1.6,0.5c0.3,0.1,0.6,0.1,0.9,0.1c0.3,0,0.6,0,0.9,0c1.2-0.1,2.3-0.5,3.4-1.1C39,66.9,37.8,67.6,36.5,67.9z"/>
				
					<linearGradient id="SVGID_3_" gradientUnits="userSpaceOnUse" x1="78.8626" y1="96.7655" x2="47.7078" y2="60.3145" gradientTransform="matrix(1 0 0 -1 0 142)">
					<stop  offset="0" style="stop-color:#00F7E2"/>
					<stop  offset="1" style="stop-color:#139BEF"/>
				</linearGradient>
				<path class="st3" d="M82.7,45.5c0.5-0.6,0.8-1.5,0.8-2.3c0-2.1-1.7-3.7-3.7-3.7c-2.1,0-3.7,1.7-3.7,3.7c0,1.7,1.1,3.1,2.6,3.6
					c1.1,3.9,1.7,9.3-1,13.1c-1.6,2.2-4.1,3.6-7.7,4.3c-0.1-0.2-0.3-0.3-0.4-0.5C69,63,68,62.3,66.5,61.8c0,0,1.1-0.2,3.5,0.9
					c0.1-0.4,0.2-0.9,0.2-1.3c0-2-1.2-3.6-2.9-4.3c0.9-2.1,0-4.7-2.2-5.5c0.1-0.3,0.2-0.6,0.2-1c0-1.4-1.1-2.5-2.5-2.5
					c-0.1,0-0.1,0-0.2,0c0,1.2-0.3,2.2-0.3,2.2c0-0.6-0.2-1.6-0.2-2.1c-0.5-2.7-2.8-4.7-5.6-4.7c-0.9,0-1.8,0.2-2.6,0.6
					c-0.9-2-2.9-3.4-5.3-3.4c-3,0.1-5.4,2.7-5.4,5.7v37.7c0,4.1,3.1,7.6,7.1,8.1c0.9,3.9,1.3,9.8-2.1,14.2l-2.4,3.1h14.7
					c0-2.1-1.7-3.8-3.8-3.8H53c2.2-4.8,1.8-10.1,1-13.9c1.8-0.6,3.3-1.9,4.3-3.5c0,0,0,0,0,0c0.5-0.9,1.2-2.4,1.2-4.2
					c0,0,0.5,2.3-0.1,4.5c0.3,0,0.6,0.1,0.9,0.1c3.5,0,6.4-2.8,6.5-6.2c-1.7-0.2-3-0.7-3-0.7c1.3-0.1,2.2-0.4,3-0.7c0,0,0,0,0,0
					c1.7-0.6,2.8-2.2,2.8-4c0-0.9-0.3-1.8-0.8-2.5c1.7-1.3,2.8-3.4,2.8-5.7c0-0.3,0-0.5,0-0.8c4.2-1,7.3-2.9,9.3-5.8
					C84.8,57,84,50.2,82.7,45.5z M49.4,52.3c0.8,0,1.5-0.1,2.2-0.4c0.7-0.3,1.3-0.8,1.8-1.4c0.5-0.6,0.8-1.3,1-2.2l0,0
					c0.2,0.8,0,1.8-0.4,2.6c-0.4,0.8-1.1,1.5-2,1.9c-0.4,0.2-0.9,0.3-1.3,0.4c-0.5,0-0.9,0-1.4-0.1c-0.9-0.2-1.7-0.7-2.2-1.4
					C47.8,52,48.6,52.2,49.4,52.3z M45.3,66c1.1,0.7,2.2,1.1,3.4,1.1c0.3,0,0.6,0,0.9,0c0.3,0,0.6,0,0.9-0.1
					c0.6-0.1,1.1-0.3,1.6-0.5c0.5-0.2,1-0.6,1.5-0.9c0.2-0.1,0.3-0.2,0.4-0.4c0.3-0.3,0.5-0.6,0.8-0.9c0.3-0.5,0.6-1,0.9-1.5
					c0.1-0.2,0.1-0.4,0.2-0.6c0.1-0.4,0.2-0.8,0.3-1.2c0.1,0.4,0.1,0.8,0,1.2c0,0.2,0,0.5-0.1,0.7c-0.1,0.6-0.3,1.3-0.7,1.8
					c-0.1,0.2-0.3,0.5-0.5,0.7c0.4,0.3,0.8,0.5,1.2,0.7c0.2,0.1,0.3,0.1,0.5,0.1c0.4,0.1,0.8,0.1,1.2,0.1c0.4,0,0.8-0.1,1.2-0.3
					c0.7-0.3,1.4-0.8,1.9-1.5c0.5-0.7,0.8-1.5,0.8-2.3c0,0.8-0.2,1.7-0.6,2.4c-0.4,0.8-1.1,1.4-1.9,1.8c-0.4,0.2-0.8,0.4-1.3,0.4
					C57.4,67,57,67,56.5,67c-0.1,0-0.2,0-0.3-0.1c-0.7-0.1-1.3-0.4-1.9-0.8c-0.1,0.1-0.2,0.2-0.3,0.3c-0.5,0.4-0.9,0.7-1.5,0.9
					c-1.2,0.6-2.6,0.7-3.9,0.5C47.3,67.6,46.1,66.9,45.3,66z M62.3,74c-0.2,0.4-0.5,0.7-0.9,1c-0.3,0.3-0.7,0.5-1.1,0.7
					c-0.8,0.3-1.7,0.5-2.6,0.3c-0.3,0-0.5-0.1-0.8-0.2c-0.5-0.2-0.9-0.4-1.3-0.7c-0.1,0.1-0.3,0.2-0.4,0.3c-0.2,0.2-0.5,0.3-0.8,0.5
					c-0.4,0.2-0.9,0.3-1.3,0.4c-0.5,0.1-0.9,0-1.4-0.1c-0.9-0.2-1.7-0.7-2.2-1.4c0.8,0.4,1.5,0.6,2.3,0.7s1.5-0.1,2.2-0.4
					c0.4-0.2,0.8-0.5,1.2-0.8c0.2-0.2,0.4-0.4,0.6-0.6c0.5-0.6,0.8-1.2,1-2h0.1c0.1,0.8,0,1.7-0.4,2.4c-0.1,0.1-0.1,0.2-0.2,0.3
					c0.2,0.2,0.4,0.3,0.7,0.5c0.3,0.2,0.6,0.3,0.9,0.4c0.7,0.2,1.6,0.2,2.3-0.1c0.4-0.1,0.8-0.3,1.1-0.5c0.3-0.2,0.6-0.5,0.9-0.8
					c0.5-0.6,0.9-1.4,1-2.3C63.1,72.4,62.8,73.3,62.3,74z"/>
			</g>
		</g>
	</g>
	<g>
		<path class="st4" d="M97,66.9c9.1,0,15.9,5.3,15.9,10.9c0,3.1-2.3,5.3-5.8,5.3c-2.3,0-3.1-0.5-4.7-3.2c-1.6-2.6-3.4-3.3-6.1-3.3
			c-3.8,0-7,3.8-7,10.5c0,6.3,2.5,10.5,7.6,10.5c2.2,0,3.4-0.6,5.8-4.1c1.2-1.7,2.7-2.6,4.5-2.6c3.2,0,5.7,2.2,5.7,5.4
			c0,6.7-9.2,10.9-16.1,10.9C86.6,107.2,77,101,77,87C77.1,73.6,86.8,66.9,97,66.9z"/>
		<path class="st4" d="M118.1,75.1c0-5.1,2.2-7.3,7.5-7.3h13.6c9.4,0,13.6,5,13.6,10.9c0,5-3.1,8.3-7.8,9.2V88
			c3.9,0.3,6.6,1.6,7.1,5.7l0.4,3.2c0.3,1.8,0.5,3.8,0.5,5.4c0,2.9-2.9,4.7-5.5,4.7c-3.6,0-6.4-1.5-6.8-5.3l-0.6-5.1
			c-0.4-3.1-2.5-4-5.4-4H130v8c0,4.1-2.1,6.4-6,6.4s-6-2.3-6-6.4L118.1,75.1L118.1,75.1z M136.2,84.6c3.6,0,5-1.1,5-3.8
			s-1.4-3.8-5-3.8H130v7.5L136.2,84.6L136.2,84.6z"/>
		<path class="st4" d="M160.4,75.1c0-5.1,2.2-7.3,7-7.3H187c3.7,0,5.4,1.8,5.4,4.5c0,2.7-1.7,4.5-5.4,4.5h-14.3v5.4h11.4
			c3.7,0,5.4,1.8,5.4,4.5c0,2.7-1.7,4.5-5.4,4.5h-11.4v6.2h14.9c3.7,0,5.4,1.8,5.4,4.5s-1.7,4.5-5.4,4.5h-20.2c-4.8,0-7-2.2-7-7.3
			V75.1z"/>
		<path class="st4" d="M206.4,101.1l-0.9,2.8c-0.6,2.2-3.1,3.1-5,3.1c-2.8,0-5.6-2.1-5.6-5c0-1.8,1-4.6,1.9-7.2l8.2-22.8
			c1.2-3.2,2.8-5,5.9-5h3.9c3.1,0,4.7,1.8,5.9,5l8.2,22.8c0.9,2.6,1.9,5.4,1.9,7.2c0,2.9-2.8,5-5.6,5c-1.9,0-4.3-0.9-5-3.1l-0.9-2.8
			H206.4z M213,79.3h-0.1l-4.2,14.1h8.4L213,79.3z"/>
	</g>
	<text transform="matrix(1 0 0 1 7.7717 129.5099)" class="st4 st5 st6">El nuevo ADN del Supervisor</text>
</g>
<image style="overflow:visible;enable-background:new    ;" width="1770" height="438" xlink:href="1940D939.jpeg"  transform="matrix(0.9977 0 0 0.9977 -7230.4795 -7652)">
</image>
</svg>
