<?xml version="1.0" encoding="utf-8"?>
<!-- Generator: Adobe Illustrator 26.0.1, SVG Export Plug-In . SVG Version: 6.00 Build 0)  -->
<svg version="1.1" id="Layer_1" xmlns="http://www.w3.org/2000/svg" xmlns:xlink="http://www.w3.org/1999/xlink" x="0px" y="0px"
	 viewBox="0 0 590.67 164" style="enable-background:new 0 0 590.67 164;" xml:space="preserve">
<style type="text/css">
	.st0{fill-rule:evenodd;clip-rule:evenodd;fill:#FFFFFF;}
</style>
<g>
	<path class="st0" d="M155.23,102h13.32c5.2,0,7.18,1.79,7.18,6.19c0,4.23-1.98,6.02-7.18,6.02h-13.32V102L155.23,102z
		 M134.59,146.45h20.64v-18.07h22.11c14.64,0,19.91-8.62,19.91-19.77c0-12.94-5.42-20.27-20.06-20.27h-42.61V146.45L134.59,146.45z"
		/>
	<polygon class="st0" points="204.07,88.33 259.63,88.33 259.63,102.49 224.71,102.49 224.71,110.31 257.14,110.31 257.14,124.47 
		224.71,124.47 224.71,132.29 259.63,132.29 259.63,146.45 204.07,146.45 	"/>
	<path class="st0" d="M288.91,102h13.32c5.2,0,7.18,1.79,7.18,6.19c0,4.23-1.98,6.02-7.18,6.02h-13.32V102L288.91,102z
		 M268.27,146.45h20.64v-18.07h22.11c14.64,0,19.92-8.62,19.92-19.77c0-12.94-5.42-20.27-20.06-20.27h-42.61L268.27,146.45
		L268.27,146.45z"/>
	<path class="st0" d="M350.92,121.79c-10.1-1.71-14.27-8.22-14.27-16.36c0-15.06,13.25-19.13,30.23-19.13
		c23.28,0,32.87,6.75,33.6,19.04h-24.01c0-2.36-1.24-3.83-3.14-4.64c-1.83-0.89-4.17-1.22-6.44-1.22c-6.15,0-8.27,1.71-8.27,4.15
		c0,1.62,0.66,2.69,2.71,3.01l24.67,4.07c10.4,1.71,16.84,7.08,16.84,16.93c0,14.17-10.4,20.84-33.6,20.84
		c-15.89,0-33.24-2.44-33.31-19.53h24.89c0.07,1.95,0.73,3.25,2.2,4.15c1.53,0.82,3.8,1.22,7.02,1.22c6.44,0,8.2-1.96,8.2-4.72
		c0-1.71-0.95-3.42-3.73-3.9L350.92,121.79L350.92,121.79z"/>
	<polygon class="st0" points="409.56,88.33 430.2,88.33 430.2,146.45 409.56,146.45 	"/>
	<path class="st0" d="M506.71,123.82c-1.32,7.65-3.66,13.84-8.79,18.07c-5.05,4.23-12.96,6.59-25.55,6.59
		c-12.52,0-35.73-0.98-35.73-31.09c0-30.12,23.21-31.09,35.73-31.09c12.44,0,31.62,1.79,34.33,24.83h-23.28
		c-0.59-4.15-3.08-10.18-11.05-10.18c-8.42,0-13.77,4.64-13.77,16.44c0,11.8,5.2,16.44,12.74,16.44c6.52,0,10.4-3.01,12.08-10.01
		L506.71,123.82L506.71,123.82z"/>
	<path class="st0" d="M533.72,117.39c0-11.81,5.35-16.44,13.77-16.44c8.42,0,13.76,4.64,13.76,16.44c0,11.8-5.35,16.44-13.76,16.44
		C539.06,133.83,533.72,129.19,533.72,117.39L533.72,117.39z M511.75,117.39c0,30.11,23.21,31.09,35.73,31.09
		c12.52,0,35.73-0.98,35.73-31.09c0-30.12-23.21-31.09-35.73-31.09C534.96,86.3,511.75,87.28,511.75,117.39L511.75,117.39z"/>
	<path class="st0" d="M103.4,88.91c1.33-27.88-22.71-59.28-55.49-63.16l0.06-0.38c32.31,0,57.09,29.92,57.09,53.52
		c-0.03,4.91-0.42,7.96-1.11,10.17L103.4,88.91L103.4,88.91z M101.44,92.45c-2.15,2.63-4.85,5.27-8.02,7.78
		c-5.83-33.52-30.46-62.83-47.87-71.38l-0.37,0.26c17.51,14.37,38.4,42.29,46.52,72.44c-3.89,2.86-8.38,5.5-13.34,7.64
		C61.83,90.35,46.42,54,41.46,30.94l-0.51,0.15c0.11,22.39,16.01,60.39,35.39,78.94c-4.3,1.7-8.93,3.02-13.79,3.81
		c-18.58-7.36-31.81-30.94-31.81-55.09c0-15.77,4.81-25.52,5.74-27.51l-0.4-0.16c-1.12,1.7-8.17,11.45-8.17,28.47
		c0,27.3,13.46,48.17,31.34,54.74c-6.11,0.67-12.55,0.46-19.15-0.9l-0.13,0.42c1.91,0.7,8.4,3.43,18.3,3.43
		c22.38,0,37.51-13.91,43.61-24.48L101.44,92.45L101.44,92.45z"/>
	<path class="st0" d="M56.03,15.52c-16.97,0-36.86,12.25-36.86,23.44c0,4.33,3.96,7.99,12.16,7.99c19.03,0,36.71-13.08,36.71-23.24
		C68.04,18.35,62.9,15.52,56.03,15.52L56.03,15.52z M62.81,23.39c0,8.57-16.46,19.05-30.21,19.05c-6.08,0-9.36-2.39-9.36-6.34
		c0-8.69,16.64-18.99,29.55-18.99C61.19,17.1,62.81,21.39,62.81,23.39L62.81,23.39z"/>
	<path class="st0" d="M12.41,44.14c-0.48,0.83-2.39,4.56-2.39,8.4c0,7.11,7.18,13.7,20.39,13.7c25.41,0,54.77-18.7,54.77-36.06
		c0-7.79-7.38-12.03-12.5-12.91l-0.1,0.3c1.59,0.5,7.43,3.22,7.43,10.16c0,13.83-25.92,32.68-51.74,32.68
		c-9.88,0-16.11-4.88-16.11-11.99c0-2.25,0.47-3.73,0.59-4.16L12.41,44.14L12.41,44.14z"/>
	<path class="st0" d="M95.65,31.48c0.7,0.53,4.88,4.02,4.88,10.61c0,22.49-35.24,44.6-66.39,44.6c-18.58,0-27.05-9.17-26.67-17.32
		H7.8c0.73,4.23,6.76,11.8,23.02,11.8c31.19,0,66.02-22.88,66.02-42.93c0-3.44-0.93-5.58-1.46-6.53L95.65,31.48L95.65,31.48z"/>
	<path class="st0" d="M107.43,52.47c0.15,0.48,0.9,2.63,0.9,6c0,25.02-35.66,46.44-66.68,46.44c-15.96,0-24.3-7.75-26.06-10.9
		l0.28-0.21c4.42,3.86,13.12,6.8,23.27,6.8c27.39,0,68.26-20.84,67.9-48.03L107.43,52.47L107.43,52.47z"/>
</g>
</svg>
